<mxfile host="app.diagrams.net" agent="Mozilla/5.0 (Windows NT 10.0; Win64; x64) AppleWebKit/537.36 (KHTML, like Gecko) Chrome/140.0.0.0 Safari/537.36" version="28.2.5">
  <diagram id="6a731a19-8d31-9384-78a2-239565b7b9f0" name="Page-1">
    <mxGraphModel dx="1678" dy="924" grid="0" gridSize="10" guides="1" tooltips="1" connect="1" arrows="1" fold="1" page="1" pageScale="1" pageWidth="827" pageHeight="1169" background="none" math="0" shadow="0">
      <root>
        <mxCell id="0" />
        <mxCell id="1" parent="0" />
        <mxCell id="ilIEvV-SWO4HyNKHZGSN-2257" value="" style="shape=mxgraph.cisco.computers_and_peripherals.pc;sketch=0;html=1;pointerEvents=1;dashed=0;fillColor=#036897;strokeColor=#ffffff;strokeWidth=2;verticalLabelPosition=bottom;verticalAlign=top;align=center;outlineConnect=0;" parent="1" vertex="1">
          <mxGeometry x="80" y="690" width="78" height="70" as="geometry" />
        </mxCell>
        <mxCell id="ilIEvV-SWO4HyNKHZGSN-2258" value="" style="shape=mxgraph.cisco.computers_and_peripherals.pc;sketch=0;html=1;pointerEvents=1;dashed=0;fillColor=#036897;strokeColor=#ffffff;strokeWidth=2;verticalLabelPosition=bottom;verticalAlign=top;align=center;outlineConnect=0;" parent="1" vertex="1">
          <mxGeometry x="220" y="691" width="78" height="70" as="geometry" />
        </mxCell>
        <mxCell id="ilIEvV-SWO4HyNKHZGSN-2259" value="" style="shape=mxgraph.cisco.computers_and_peripherals.pc;sketch=0;html=1;pointerEvents=1;dashed=0;fillColor=#036897;strokeColor=#ffffff;strokeWidth=2;verticalLabelPosition=bottom;verticalAlign=top;align=center;outlineConnect=0;" parent="1" vertex="1">
          <mxGeometry x="370" y="692" width="78" height="70" as="geometry" />
        </mxCell>
        <mxCell id="ilIEvV-SWO4HyNKHZGSN-2260" value="" style="shape=mxgraph.cisco.computers_and_peripherals.pc;sketch=0;html=1;pointerEvents=1;dashed=0;fillColor=#036897;strokeColor=#ffffff;strokeWidth=2;verticalLabelPosition=bottom;verticalAlign=top;align=center;outlineConnect=0;" parent="1" vertex="1">
          <mxGeometry x="520" y="692" width="78" height="70" as="geometry" />
        </mxCell>
        <mxCell id="ilIEvV-SWO4HyNKHZGSN-2261" value="" style="shape=mxgraph.cisco.servers.file_server;sketch=0;html=1;pointerEvents=1;dashed=0;fillColor=#036897;strokeColor=#ffffff;strokeWidth=2;verticalLabelPosition=bottom;verticalAlign=top;align=center;outlineConnect=0;" parent="1" vertex="1">
          <mxGeometry x="116" y="490" width="44" height="70" as="geometry" />
        </mxCell>
        <mxCell id="ilIEvV-SWO4HyNKHZGSN-2262" value="" style="shape=mxgraph.cisco.storage.relational_database;sketch=0;html=1;pointerEvents=1;dashed=0;fillColor=#036897;strokeColor=#ffffff;strokeWidth=2;verticalLabelPosition=bottom;verticalAlign=top;align=center;outlineConnect=0;" parent="1" vertex="1">
          <mxGeometry x="105" y="360" width="66" height="53" as="geometry" />
        </mxCell>
        <mxCell id="ilIEvV-SWO4HyNKHZGSN-2263" value="" style="shape=mxgraph.cisco.switches.workgroup_switch;sketch=0;html=1;pointerEvents=1;dashed=0;fillColor=#036897;strokeColor=#ffffff;strokeWidth=2;verticalLabelPosition=bottom;verticalAlign=top;align=center;outlineConnect=0;" parent="1" vertex="1">
          <mxGeometry x="490" y="362" width="101" height="50" as="geometry" />
        </mxCell>
        <mxCell id="ilIEvV-SWO4HyNKHZGSN-2264" value="" style="shape=mxgraph.cisco.routers.router;sketch=0;html=1;pointerEvents=1;dashed=0;fillColor=#036897;strokeColor=#ffffff;strokeWidth=2;verticalLabelPosition=bottom;verticalAlign=top;align=center;outlineConnect=0;" parent="1" vertex="1">
          <mxGeometry x="502" y="140" width="78" height="53" as="geometry" />
        </mxCell>
        <mxCell id="ilIEvV-SWO4HyNKHZGSN-2265" value="" style="shape=mxgraph.cisco.security.firewall;sketch=0;html=1;pointerEvents=1;dashed=0;fillColor=#036897;strokeColor=#ffffff;strokeWidth=2;verticalLabelPosition=bottom;verticalAlign=top;align=center;outlineConnect=0;" parent="1" vertex="1">
          <mxGeometry x="330" y="126" width="40" height="81" as="geometry" />
        </mxCell>
        <mxCell id="ilIEvV-SWO4HyNKHZGSN-2266" value="" style="endArrow=none;html=1;rounded=0;entryX=0.5;entryY=1;entryDx=0;entryDy=0;entryPerimeter=0;exitX=0.5;exitY=0;exitDx=0;exitDy=0;exitPerimeter=0;strokeWidth=3;" parent="1" source="ilIEvV-SWO4HyNKHZGSN-2263" target="ilIEvV-SWO4HyNKHZGSN-2264" edge="1">
          <mxGeometry width="50" height="50" relative="1" as="geometry">
            <mxPoint x="700" y="730" as="sourcePoint" />
            <mxPoint x="750" y="680" as="targetPoint" />
          </mxGeometry>
        </mxCell>
        <mxCell id="ilIEvV-SWO4HyNKHZGSN-2267" value="" style="endArrow=none;html=1;rounded=0;entryX=0.5;entryY=0.98;entryDx=0;entryDy=0;entryPerimeter=0;strokeWidth=3;" parent="1" target="ilIEvV-SWO4HyNKHZGSN-2263" edge="1">
          <mxGeometry width="50" height="50" relative="1" as="geometry">
            <mxPoint x="540.57" y="529" as="sourcePoint" />
            <mxPoint x="540.07" y="420" as="targetPoint" />
          </mxGeometry>
        </mxCell>
        <mxCell id="ilIEvV-SWO4HyNKHZGSN-2268" value="" style="endArrow=none;html=1;rounded=0;strokeWidth=3;" parent="1" edge="1">
          <mxGeometry width="50" height="50" relative="1" as="geometry">
            <mxPoint x="158" y="530" as="sourcePoint" />
            <mxPoint x="560" y="530" as="targetPoint" />
          </mxGeometry>
        </mxCell>
        <mxCell id="ilIEvV-SWO4HyNKHZGSN-2269" value="" style="endArrow=none;html=1;rounded=0;exitX=0.5;exitY=0;exitDx=0;exitDy=0;exitPerimeter=0;strokeWidth=3;" parent="1" source="ilIEvV-SWO4HyNKHZGSN-2260" edge="1">
          <mxGeometry width="50" height="50" relative="1" as="geometry">
            <mxPoint x="700" y="640" as="sourcePoint" />
            <mxPoint x="559" y="530" as="targetPoint" />
          </mxGeometry>
        </mxCell>
        <mxCell id="ilIEvV-SWO4HyNKHZGSN-2270" value="" style="endArrow=none;html=1;rounded=0;exitX=0.5;exitY=0;exitDx=0;exitDy=0;exitPerimeter=0;strokeWidth=3;" parent="1" source="ilIEvV-SWO4HyNKHZGSN-2259" edge="1">
          <mxGeometry width="50" height="50" relative="1" as="geometry">
            <mxPoint x="700" y="640" as="sourcePoint" />
            <mxPoint x="409" y="530" as="targetPoint" />
          </mxGeometry>
        </mxCell>
        <mxCell id="ilIEvV-SWO4HyNKHZGSN-2271" value="" style="endArrow=none;html=1;rounded=0;exitX=0.5;exitY=0;exitDx=0;exitDy=0;exitPerimeter=0;strokeWidth=3;" parent="1" edge="1">
          <mxGeometry width="50" height="50" relative="1" as="geometry">
            <mxPoint x="258.57" y="692" as="sourcePoint" />
            <mxPoint x="258.57" y="530" as="targetPoint" />
          </mxGeometry>
        </mxCell>
        <mxCell id="ilIEvV-SWO4HyNKHZGSN-2272" value="" style="endArrow=none;html=1;rounded=0;exitX=0.5;exitY=0;exitDx=0;exitDy=0;exitPerimeter=0;strokeWidth=3;" parent="1" source="ilIEvV-SWO4HyNKHZGSN-2257" edge="1">
          <mxGeometry width="50" height="50" relative="1" as="geometry">
            <mxPoint x="510" y="640" as="sourcePoint" />
            <mxPoint x="210" y="530" as="targetPoint" />
            <Array as="points">
              <mxPoint x="119" y="620" />
              <mxPoint x="210" y="620" />
            </Array>
          </mxGeometry>
        </mxCell>
        <mxCell id="ilIEvV-SWO4HyNKHZGSN-2273" value="" style="endArrow=none;html=1;rounded=0;exitX=0.5;exitY=0;exitDx=0;exitDy=0;exitPerimeter=0;entryX=0.5;entryY=1;entryDx=0;entryDy=0;entryPerimeter=0;strokeWidth=3;" parent="1" source="ilIEvV-SWO4HyNKHZGSN-2261" target="ilIEvV-SWO4HyNKHZGSN-2262" edge="1">
          <mxGeometry width="50" height="50" relative="1" as="geometry">
            <mxPoint x="510" y="550" as="sourcePoint" />
            <mxPoint x="560" y="500" as="targetPoint" />
          </mxGeometry>
        </mxCell>
        <mxCell id="ilIEvV-SWO4HyNKHZGSN-2274" value="" style="endArrow=none;html=1;rounded=0;entryX=0;entryY=0.5;entryDx=0;entryDy=0;entryPerimeter=0;strokeWidth=3;" parent="1" target="ilIEvV-SWO4HyNKHZGSN-2264" edge="1">
          <mxGeometry width="50" height="50" relative="1" as="geometry">
            <mxPoint x="370" y="167" as="sourcePoint" />
            <mxPoint x="560" y="330" as="targetPoint" />
          </mxGeometry>
        </mxCell>
        <mxCell id="ilIEvV-SWO4HyNKHZGSN-2275" value="" style="endArrow=none;html=1;rounded=0;entryX=0;entryY=0.5;entryDx=0;entryDy=0;entryPerimeter=0;fillColor=#a20025;strokeColor=#6F0000;strokeWidth=3;" parent="1" target="ilIEvV-SWO4HyNKHZGSN-2265" edge="1">
          <mxGeometry width="50" height="50" relative="1" as="geometry">
            <mxPoint x="160" y="110" as="sourcePoint" />
            <mxPoint x="180" y="110" as="targetPoint" />
            <Array as="points">
              <mxPoint x="220" y="160" />
              <mxPoint x="280" y="120" />
            </Array>
          </mxGeometry>
        </mxCell>
        <mxCell id="ilIEvV-SWO4HyNKHZGSN-2276" value="Internet" style="ellipse;shape=cloud;whiteSpace=wrap;html=1;" parent="1" vertex="1">
          <mxGeometry x="51" y="60" width="120" height="80" as="geometry" />
        </mxCell>
        <mxCell id="ilIEvV-SWO4HyNKHZGSN-2277" value="Production Information System DB" style="text;html=1;align=center;verticalAlign=middle;whiteSpace=wrap;rounded=0;" parent="1" vertex="1">
          <mxGeometry x="108" y="320" width="60" height="30" as="geometry" />
        </mxCell>
        <mxCell id="ilIEvV-SWO4HyNKHZGSN-2278" value="&lt;div&gt;Kiczan File Server&lt;/div&gt;(kiczanapp01)(G:)" style="text;html=1;align=center;verticalAlign=middle;whiteSpace=wrap;rounded=0;" parent="1" vertex="1">
          <mxGeometry x="6" y="510" width="110" height="30" as="geometry" />
        </mxCell>
        <mxCell id="ilIEvV-SWO4HyNKHZGSN-2279" value="Kiczan Router&lt;div&gt;kicz.local&lt;/div&gt;" style="text;html=1;align=center;verticalAlign=middle;whiteSpace=wrap;rounded=0;" parent="1" vertex="1">
          <mxGeometry x="580" y="151.5" width="60" height="30" as="geometry" />
        </mxCell>
        <mxCell id="ilIEvV-SWO4HyNKHZGSN-2280" value="Fabrication Department KICZANWS09" style="text;html=1;align=center;verticalAlign=middle;whiteSpace=wrap;rounded=0;" parent="1" vertex="1">
          <mxGeometry x="80" y="770" width="60" height="30" as="geometry" />
        </mxCell>
        <mxCell id="ilIEvV-SWO4HyNKHZGSN-2281" value="Quality Department KICZANWS12" style="text;html=1;align=center;verticalAlign=middle;whiteSpace=wrap;rounded=0;" parent="1" vertex="1">
          <mxGeometry x="370" y="770" width="60" height="30" as="geometry" />
        </mxCell>
        <mxCell id="ilIEvV-SWO4HyNKHZGSN-2282" value="Machine Shop Department&lt;div&gt;KICZANWS03&lt;/div&gt;" style="text;html=1;align=center;verticalAlign=middle;whiteSpace=wrap;rounded=0;" parent="1" vertex="1">
          <mxGeometry x="210" y="770" width="80" height="30" as="geometry" />
        </mxCell>
        <mxCell id="ilIEvV-SWO4HyNKHZGSN-2283" value="Shipping Department KICZANWS01" style="text;html=1;align=center;verticalAlign=middle;whiteSpace=wrap;rounded=0;" parent="1" vertex="1">
          <mxGeometry x="520" y="770" width="60" height="30" as="geometry" />
        </mxCell>
        <mxCell id="ilIEvV-SWO4HyNKHZGSN-2284" value="Kiczan Workgroup Switch" style="text;html=1;align=center;verticalAlign=middle;whiteSpace=wrap;rounded=0;" parent="1" vertex="1">
          <mxGeometry x="598" y="371.5" width="60" height="30" as="geometry" />
        </mxCell>
        <mxCell id="ilIEvV-SWO4HyNKHZGSN-2285" value="Kiczan Firewall Appliance" style="text;html=1;align=center;verticalAlign=middle;whiteSpace=wrap;rounded=0;" parent="1" vertex="1">
          <mxGeometry x="320" y="85" width="60" height="30" as="geometry" />
        </mxCell>
      </root>
    </mxGraphModel>
  </diagram>
</mxfile>
